%TF.GenerationSoftware,KiCad,Pcbnew,9.0.2*%
%TF.CreationDate,2025-06-04T21:23:03+09:00*%
%TF.ProjectId,rp2350-motor-board,72703233-3530-42d6-9d6f-746f722d626f,rev?*%
%TF.SameCoordinates,Original*%
%TF.FileFunction,Legend,Top*%
%TF.FilePolarity,Positive*%
%FSLAX46Y46*%
G04 Gerber Fmt 4.6, Leading zero omitted, Abs format (unit mm)*
G04 Created by KiCad (PCBNEW 9.0.2) date 2025-06-04 21:23:03*
%MOMM*%
%LPD*%
G01*
G04 APERTURE LIST*
G04 Aperture macros list*
%AMRoundRect*
0 Rectangle with rounded corners*
0 $1 Rounding radius*
0 $2 $3 $4 $5 $6 $7 $8 $9 X,Y pos of 4 corners*
0 Add a 4 corners polygon primitive as box body*
4,1,4,$2,$3,$4,$5,$6,$7,$8,$9,$2,$3,0*
0 Add four circle primitives for the rounded corners*
1,1,$1+$1,$2,$3*
1,1,$1+$1,$4,$5*
1,1,$1+$1,$6,$7*
1,1,$1+$1,$8,$9*
0 Add four rect primitives between the rounded corners*
20,1,$1+$1,$2,$3,$4,$5,0*
20,1,$1+$1,$4,$5,$6,$7,0*
20,1,$1+$1,$6,$7,$8,$9,0*
20,1,$1+$1,$8,$9,$2,$3,0*%
G04 Aperture macros list end*
%ADD10C,0.150000*%
%ADD11C,0.101600*%
%ADD12C,0.120000*%
%ADD13C,0.100000*%
%ADD14C,0.127000*%
%ADD15C,0.504000*%
%ADD16R,1.700000X1.700000*%
%ADD17C,1.700000*%
%ADD18RoundRect,0.250000X-0.350000X-0.625000X0.350000X-0.625000X0.350000X0.625000X-0.350000X0.625000X0*%
%ADD19O,1.200000X1.750000*%
%ADD20RoundRect,0.202000X1.685500X0.808000X-1.685500X0.808000X-1.685500X-0.808000X1.685500X-0.808000X0*%
%ADD21RoundRect,0.200000X1.687500X0.800000X-1.687500X0.800000X-1.687500X-0.800000X1.687500X-0.800000X0*%
%ADD22RoundRect,0.200000X-1.705000X-0.800000X1.705000X-0.800000X1.705000X0.800000X-1.705000X0.800000X0*%
%ADD23RoundRect,0.194000X-1.711000X-0.776000X1.711000X-0.776000X1.711000X0.776000X-1.711000X0.776000X0*%
%ADD24RoundRect,0.188000X-1.717000X-0.752000X1.717000X-0.752000X1.717000X0.752000X-1.717000X0.752000X0*%
%ADD25RoundRect,0.110000X-0.440000X1.140000X-0.440000X-1.140000X0.440000X-1.140000X0.440000X1.140000X0*%
%ADD26C,2.000000*%
G04 APERTURE END LIST*
D10*
X30146666Y32015181D02*
X30146666Y31300896D01*
X30146666Y31300896D02*
X30099047Y31158039D01*
X30099047Y31158039D02*
X30003809Y31062800D01*
X30003809Y31062800D02*
X29860952Y31015181D01*
X29860952Y31015181D02*
X29765714Y31015181D01*
X30575238Y31919943D02*
X30622857Y31967562D01*
X30622857Y31967562D02*
X30718095Y32015181D01*
X30718095Y32015181D02*
X30956190Y32015181D01*
X30956190Y32015181D02*
X31051428Y31967562D01*
X31051428Y31967562D02*
X31099047Y31919943D01*
X31099047Y31919943D02*
X31146666Y31824705D01*
X31146666Y31824705D02*
X31146666Y31729467D01*
X31146666Y31729467D02*
X31099047Y31586610D01*
X31099047Y31586610D02*
X30527619Y31015181D01*
X30527619Y31015181D02*
X31146666Y31015181D01*
X15214285Y2497562D02*
X15119047Y2545181D01*
X15119047Y2545181D02*
X14976190Y2545181D01*
X14976190Y2545181D02*
X14833333Y2497562D01*
X14833333Y2497562D02*
X14738095Y2402324D01*
X14738095Y2402324D02*
X14690476Y2307086D01*
X14690476Y2307086D02*
X14642857Y2116610D01*
X14642857Y2116610D02*
X14642857Y1973753D01*
X14642857Y1973753D02*
X14690476Y1783277D01*
X14690476Y1783277D02*
X14738095Y1688039D01*
X14738095Y1688039D02*
X14833333Y1592800D01*
X14833333Y1592800D02*
X14976190Y1545181D01*
X14976190Y1545181D02*
X15071428Y1545181D01*
X15071428Y1545181D02*
X15214285Y1592800D01*
X15214285Y1592800D02*
X15261904Y1640420D01*
X15261904Y1640420D02*
X15261904Y1973753D01*
X15261904Y1973753D02*
X15071428Y1973753D01*
X15690476Y1545181D02*
X15690476Y2211848D01*
X15690476Y2021372D02*
X15738095Y2116610D01*
X15738095Y2116610D02*
X15785714Y2164229D01*
X15785714Y2164229D02*
X15880952Y2211848D01*
X15880952Y2211848D02*
X15976190Y2211848D01*
X16452381Y1545181D02*
X16357143Y1592800D01*
X16357143Y1592800D02*
X16309524Y1640420D01*
X16309524Y1640420D02*
X16261905Y1735658D01*
X16261905Y1735658D02*
X16261905Y2021372D01*
X16261905Y2021372D02*
X16309524Y2116610D01*
X16309524Y2116610D02*
X16357143Y2164229D01*
X16357143Y2164229D02*
X16452381Y2211848D01*
X16452381Y2211848D02*
X16595238Y2211848D01*
X16595238Y2211848D02*
X16690476Y2164229D01*
X16690476Y2164229D02*
X16738095Y2116610D01*
X16738095Y2116610D02*
X16785714Y2021372D01*
X16785714Y2021372D02*
X16785714Y1735658D01*
X16785714Y1735658D02*
X16738095Y1640420D01*
X16738095Y1640420D02*
X16690476Y1592800D01*
X16690476Y1592800D02*
X16595238Y1545181D01*
X16595238Y1545181D02*
X16452381Y1545181D01*
X17119048Y2211848D02*
X17357143Y1545181D01*
X17357143Y1545181D02*
X17595238Y2211848D01*
X18357143Y1592800D02*
X18261905Y1545181D01*
X18261905Y1545181D02*
X18071429Y1545181D01*
X18071429Y1545181D02*
X17976191Y1592800D01*
X17976191Y1592800D02*
X17928572Y1688039D01*
X17928572Y1688039D02*
X17928572Y2068991D01*
X17928572Y2068991D02*
X17976191Y2164229D01*
X17976191Y2164229D02*
X18071429Y2211848D01*
X18071429Y2211848D02*
X18261905Y2211848D01*
X18261905Y2211848D02*
X18357143Y2164229D01*
X18357143Y2164229D02*
X18404762Y2068991D01*
X18404762Y2068991D02*
X18404762Y1973753D01*
X18404762Y1973753D02*
X17928572Y1878515D01*
X19357143Y1545181D02*
X18785715Y1545181D01*
X19071429Y1545181D02*
X19071429Y2545181D01*
X19071429Y2545181D02*
X18976191Y2402324D01*
X18976191Y2402324D02*
X18880953Y2307086D01*
X18880953Y2307086D02*
X18785715Y2259467D01*
X2206666Y31975181D02*
X2206666Y31260896D01*
X2206666Y31260896D02*
X2159047Y31118039D01*
X2159047Y31118039D02*
X2063809Y31022800D01*
X2063809Y31022800D02*
X1920952Y30975181D01*
X1920952Y30975181D02*
X1825714Y30975181D01*
X3206666Y30975181D02*
X2635238Y30975181D01*
X2920952Y30975181D02*
X2920952Y31975181D01*
X2920952Y31975181D02*
X2825714Y31832324D01*
X2825714Y31832324D02*
X2730476Y31737086D01*
X2730476Y31737086D02*
X2635238Y31689467D01*
D11*
X8092696Y31536521D02*
X8092696Y31022474D01*
X8092696Y31022474D02*
X8122934Y30961998D01*
X8122934Y30961998D02*
X8153172Y30931759D01*
X8153172Y30931759D02*
X8213648Y30901521D01*
X8213648Y30901521D02*
X8334601Y30901521D01*
X8334601Y30901521D02*
X8395077Y30931759D01*
X8395077Y30931759D02*
X8425315Y30961998D01*
X8425315Y30961998D02*
X8455553Y31022474D01*
X8455553Y31022474D02*
X8455553Y31536521D01*
X8727696Y31476045D02*
X8757934Y31506283D01*
X8757934Y31506283D02*
X8818410Y31536521D01*
X8818410Y31536521D02*
X8969601Y31536521D01*
X8969601Y31536521D02*
X9030077Y31506283D01*
X9030077Y31506283D02*
X9060315Y31476045D01*
X9060315Y31476045D02*
X9090553Y31415569D01*
X9090553Y31415569D02*
X9090553Y31355093D01*
X9090553Y31355093D02*
X9060315Y31264379D01*
X9060315Y31264379D02*
X8697458Y30901521D01*
X8697458Y30901521D02*
X9090553Y30901521D01*
D12*
%TO.C,J2*%
X29150000Y27430000D02*
X29150000Y4510000D01*
X29150000Y27430000D02*
X31810000Y27430000D01*
X29150000Y4510000D02*
X31810000Y4510000D01*
X30480000Y30030000D02*
X31810000Y30030000D01*
X31810000Y30030000D02*
X31810000Y28700000D01*
X31810000Y27430000D02*
X31810000Y4510000D01*
%TO.C,Grove1*%
X11940000Y7910000D02*
X11940000Y90000D01*
X11940000Y6310000D02*
X12860000Y6310000D01*
X11940000Y90000D02*
X22060000Y90000D01*
X12700000Y3950000D02*
X12700000Y2350000D01*
X12700000Y2350000D02*
X13700000Y2350000D01*
X12860000Y7910000D02*
X11940000Y7910000D01*
X12860000Y6310000D02*
X12860000Y7910000D01*
X13140000Y6310000D02*
X12860000Y6310000D01*
X13140000Y6310000D02*
X13140000Y7525000D01*
X13200000Y2350000D02*
X13200000Y90000D01*
X13700000Y3950000D02*
X12700000Y3950000D01*
X13700000Y2350000D02*
X13700000Y3950000D01*
X13700000Y2350000D02*
X13700000Y90000D01*
X14500000Y4450000D02*
X19500000Y4450000D01*
X14500000Y90000D02*
X14500000Y4450000D01*
X19500000Y4450000D02*
X19500000Y90000D01*
X20300000Y3950000D02*
X21300000Y3950000D01*
X20300000Y2350000D02*
X20300000Y3950000D01*
X21140000Y7910000D02*
X21140000Y6310000D01*
X21140000Y6310000D02*
X20860000Y6310000D01*
X21300000Y3950000D02*
X21300000Y2350000D01*
X21300000Y2350000D02*
X20300000Y2350000D01*
X22060000Y7910000D02*
X21140000Y7910000D01*
X22060000Y6310000D02*
X21140000Y6310000D01*
X22060000Y90000D02*
X22060000Y7910000D01*
%TO.C,J1*%
X1210000Y27390000D02*
X1210000Y4470000D01*
X1210000Y27390000D02*
X3870000Y27390000D01*
X1210000Y4470000D02*
X3870000Y4470000D01*
X2540000Y29990000D02*
X3870000Y29990000D01*
X3870000Y29990000D02*
X3870000Y28660000D01*
X3870000Y27390000D02*
X3870000Y4470000D01*
D13*
%TO.C,U2*%
X7769006Y10681000D02*
X7769006Y27826000D01*
X9674006Y8776000D02*
X23644006Y8776000D01*
D14*
X12161006Y29743000D02*
X12161722Y31284284D01*
X12661722Y31784012D02*
X20656994Y31784012D01*
X21156994Y31284012D02*
X21158006Y29740000D01*
D13*
X23644006Y29731000D02*
X9674006Y29731000D01*
X25549006Y10681000D02*
X25549006Y27826000D01*
X7769006Y27830000D02*
G75*
G02*
X9674006Y29735000I1905001J-1D01*
G01*
X9674006Y8776000D02*
G75*
G02*
X7769006Y10681000I1J1905001D01*
G01*
D14*
X12161722Y31284284D02*
G75*
G02*
X12661722Y31784012I500131J-403D01*
G01*
X20656994Y31784012D02*
G75*
G02*
X21157018Y31284012I12J-500012D01*
G01*
D13*
X23644006Y29731000D02*
G75*
G02*
X25549006Y27826000I0J-1905000D01*
G01*
X25549006Y10681000D02*
G75*
G02*
X23644006Y8776000I-1905000J0D01*
G01*
D15*
X7794994Y29327012D02*
G75*
G02*
X7290994Y29327012I-252000J0D01*
G01*
X7290994Y29327012D02*
G75*
G02*
X7794994Y29327012I252000J0D01*
G01*
X9011994Y28604012D02*
G75*
G02*
X8507994Y28604012I-252000J0D01*
G01*
X8507994Y28604012D02*
G75*
G02*
X9011994Y28604012I252000J0D01*
G01*
%TD*%
%LPC*%
D16*
%TO.C,J2*%
X30480000Y28700000D03*
D17*
X30480000Y26160000D03*
X30480000Y23620000D03*
X30480000Y21080000D03*
X30480000Y18540000D03*
X30480000Y16000000D03*
X30480000Y13460000D03*
X30480000Y10920000D03*
X30480000Y8380000D03*
X30480000Y5840000D03*
%TD*%
D18*
%TO.C,Grove1*%
X14000000Y6450000D03*
D19*
X16000000Y6450000D03*
X18000000Y6450000D03*
X20000000Y6450000D03*
%TD*%
D16*
%TO.C,J1*%
X2540000Y28660000D03*
D17*
X2540000Y26120000D03*
X2540000Y23580000D03*
X2540000Y21040000D03*
X2540000Y18500000D03*
X2540000Y15960000D03*
X2540000Y13420000D03*
X2540000Y10880000D03*
X2540000Y8340000D03*
X2540000Y5800000D03*
%TD*%
D20*
%TO.C,U2*%
X8064006Y26800000D03*
D21*
X8064006Y24270000D03*
X8064006Y21730000D03*
X8064006Y19190000D03*
X8064006Y16650000D03*
X8064006Y14110000D03*
X8064006Y11570000D03*
D22*
X25271506Y11570000D03*
X25271506Y14110000D03*
X25271506Y16650000D03*
X25271506Y19190000D03*
D23*
X25271506Y21760000D03*
D24*
X25271506Y24330000D03*
D22*
X25271506Y26810000D03*
D17*
X21660000Y23000000D03*
X21660000Y20460000D03*
X21660000Y17920000D03*
X21660000Y15380000D03*
X11500000Y15380000D03*
X11500000Y17920000D03*
X11500000Y20460000D03*
X11500000Y23000000D03*
X15389006Y27840000D03*
X15389006Y25300000D03*
X15389006Y22760000D03*
X17929006Y22760000D03*
X17929006Y25300000D03*
X17929006Y27840000D03*
D25*
X15659006Y14215189D03*
X17659006Y14215189D03*
%TD*%
D26*
%TO.C,U1*%
X26500000Y5000000D03*
%TD*%
%TO.C,U3*%
X8500000Y4970000D03*
%TD*%
%LPD*%
M02*
