%TF.GenerationSoftware,KiCad,Pcbnew,9.0.2*%
%TF.CreationDate,2025-06-04T21:23:03+09:00*%
%TF.ProjectId,rp2350-motor-board,72703233-3530-42d6-9d6f-746f722d626f,rev?*%
%TF.SameCoordinates,Original*%
%TF.FileFunction,Legend,Bot*%
%TF.FilePolarity,Positive*%
%FSLAX46Y46*%
G04 Gerber Fmt 4.6, Leading zero omitted, Abs format (unit mm)*
G04 Created by KiCad (PCBNEW 9.0.2) date 2025-06-04 21:23:03*
%MOMM*%
%LPD*%
G01*
G04 APERTURE LIST*
G04 Aperture macros list*
%AMRoundRect*
0 Rectangle with rounded corners*
0 $1 Rounding radius*
0 $2 $3 $4 $5 $6 $7 $8 $9 X,Y pos of 4 corners*
0 Add a 4 corners polygon primitive as box body*
4,1,4,$2,$3,$4,$5,$6,$7,$8,$9,$2,$3,0*
0 Add four circle primitives for the rounded corners*
1,1,$1+$1,$2,$3*
1,1,$1+$1,$4,$5*
1,1,$1+$1,$6,$7*
1,1,$1+$1,$8,$9*
0 Add four rect primitives between the rounded corners*
20,1,$1+$1,$2,$3,$4,$5,0*
20,1,$1+$1,$4,$5,$6,$7,0*
20,1,$1+$1,$6,$7,$8,$9,0*
20,1,$1+$1,$8,$9,$2,$3,0*%
G04 Aperture macros list end*
%ADD10C,0.200000*%
%ADD11C,0.150000*%
%ADD12C,0.120000*%
%ADD13C,0.127000*%
%ADD14R,1.700000X1.700000*%
%ADD15C,1.700000*%
%ADD16RoundRect,0.250000X-0.350000X-0.625000X0.350000X-0.625000X0.350000X0.625000X-0.350000X0.625000X0*%
%ADD17O,1.200000X1.750000*%
%ADD18RoundRect,0.250000X-0.475000X0.337500X-0.475000X-0.337500X0.475000X-0.337500X0.475000X0.337500X0*%
%ADD19RoundRect,0.098000X0.294000X-0.989000X0.294000X0.989000X-0.294000X0.989000X-0.294000X-0.989000X0*%
%ADD20C,2.000000*%
%ADD21RoundRect,0.102000X1.142500X-1.142500X1.142500X1.142500X-1.142500X1.142500X-1.142500X-1.142500X0*%
G04 APERTURE END LIST*
D10*
G36*
X19009203Y27500830D02*
G01*
X19041239Y27472354D01*
X19087831Y27397807D01*
X19151606Y27227742D01*
X19178357Y27013734D01*
X19157558Y26847345D01*
X19132369Y26780174D01*
X19114738Y26760024D01*
X19063659Y26732781D01*
X19015775Y26732781D01*
X18947876Y26764734D01*
X18915838Y26793213D01*
X18869249Y26867756D01*
X18805474Y27037823D01*
X18778723Y27251829D01*
X18799522Y27418219D01*
X18824711Y27485390D01*
X18842342Y27505540D01*
X18893421Y27532781D01*
X18941306Y27532781D01*
X19009203Y27500830D01*
G37*
G36*
X11894452Y28783821D02*
G01*
X11926689Y28732242D01*
X11930638Y28700648D01*
X11649642Y28755476D01*
X11663079Y28791307D01*
X11696990Y28809392D01*
X11840113Y28809392D01*
X11894452Y28783821D01*
G37*
G36*
X13812773Y28777441D02*
G01*
X13844809Y28748965D01*
X13885023Y28684623D01*
X13914945Y28445246D01*
X13894272Y28390118D01*
X13876640Y28369967D01*
X13825563Y28342725D01*
X13730059Y28342725D01*
X13662160Y28374678D01*
X13630122Y28403157D01*
X13589911Y28467494D01*
X13559989Y28706872D01*
X13580662Y28762002D01*
X13598293Y28782151D01*
X13649372Y28809392D01*
X13744876Y28809392D01*
X13812773Y28777441D01*
G37*
G36*
X16812774Y28777441D02*
G01*
X16844810Y28748965D01*
X16885024Y28684623D01*
X16914946Y28445246D01*
X16894273Y28390118D01*
X16876641Y28369967D01*
X16825564Y28342725D01*
X16730060Y28342725D01*
X16662161Y28374678D01*
X16630123Y28403157D01*
X16589912Y28467494D01*
X16559990Y28706872D01*
X16580663Y28762002D01*
X16598294Y28782151D01*
X16649373Y28809392D01*
X16744877Y28809392D01*
X16812774Y28777441D01*
G37*
G36*
X19336584Y28777441D02*
G01*
X19368620Y28748965D01*
X19408834Y28684623D01*
X19438756Y28445246D01*
X19418083Y28390118D01*
X19400451Y28369967D01*
X19349374Y28342725D01*
X19253870Y28342725D01*
X19185971Y28374678D01*
X19153933Y28403157D01*
X19113722Y28467494D01*
X19083800Y28706872D01*
X19104473Y28762002D01*
X19122104Y28782151D01*
X19173183Y28809392D01*
X19268687Y28809392D01*
X19336584Y28777441D01*
G37*
G36*
X20812775Y28777441D02*
G01*
X20844811Y28748965D01*
X20885025Y28684623D01*
X20914947Y28445246D01*
X20894274Y28390118D01*
X20876642Y28369967D01*
X20825565Y28342725D01*
X20730061Y28342725D01*
X20662162Y28374678D01*
X20630124Y28403157D01*
X20589913Y28467494D01*
X20559991Y28706872D01*
X20580664Y28762002D01*
X20598295Y28782151D01*
X20649374Y28809392D01*
X20744878Y28809392D01*
X20812775Y28777441D01*
G37*
G36*
X22441683Y26421670D02*
G01*
X10605657Y26421670D01*
X10605657Y27259022D01*
X18578204Y27259022D01*
X18578392Y27251829D01*
X18578204Y27244636D01*
X18578620Y27243123D01*
X18578717Y27239425D01*
X18608479Y27001330D01*
X18609063Y26998748D01*
X18609023Y26997563D01*
X18611057Y26989932D01*
X18612805Y26982210D01*
X18613392Y26981178D01*
X18614074Y26978621D01*
X18685503Y26788145D01*
X18685605Y26787937D01*
X18685625Y26787820D01*
X18689857Y26779289D01*
X18694152Y26770553D01*
X18694233Y26770466D01*
X18694336Y26770259D01*
X18753859Y26675020D01*
X18757893Y26669787D01*
X18758917Y26667676D01*
X18762559Y26663735D01*
X18765828Y26659495D01*
X18767733Y26658137D01*
X18772222Y26653279D01*
X18825794Y26605660D01*
X18831225Y26601713D01*
X18832817Y26599963D01*
X18837370Y26597246D01*
X18841652Y26594134D01*
X18843882Y26593361D01*
X18849651Y26589918D01*
X18950841Y26542299D01*
X18969312Y26535730D01*
X18971702Y26535618D01*
X18973912Y26534702D01*
X18993421Y26532781D01*
X19088659Y26532781D01*
X19108168Y26534702D01*
X19112708Y26536583D01*
X19117600Y26537060D01*
X19135718Y26544546D01*
X19225004Y26592165D01*
X19237141Y26600259D01*
X19238911Y26601133D01*
X19240031Y26602185D01*
X19241314Y26603040D01*
X19242571Y26604570D01*
X19253203Y26614550D01*
X19294870Y26662170D01*
X19303201Y26673824D01*
X19304596Y26675316D01*
X19305317Y26676783D01*
X19306271Y26678117D01*
X19306927Y26680059D01*
X19313245Y26692908D01*
X19348959Y26788146D01*
X19349640Y26790701D01*
X19350228Y26791734D01*
X19351975Y26799459D01*
X19354010Y26807087D01*
X19353969Y26808272D01*
X19354554Y26810854D01*
X19378364Y27001330D01*
X19378460Y27005028D01*
X19378877Y27006541D01*
X19378688Y27013734D01*
X19378877Y27020927D01*
X19378460Y27022441D01*
X19378364Y27026137D01*
X19348602Y27264233D01*
X19348017Y27266816D01*
X19348058Y27268000D01*
X19346023Y27275629D01*
X19344276Y27283353D01*
X19343688Y27284387D01*
X19343007Y27286941D01*
X19271578Y27477418D01*
X19271474Y27477630D01*
X19271455Y27477744D01*
X19267196Y27486330D01*
X19262929Y27495010D01*
X19262848Y27495096D01*
X19262745Y27495305D01*
X19203221Y27590543D01*
X19199185Y27595778D01*
X19198163Y27597887D01*
X19194523Y27601825D01*
X19191252Y27606069D01*
X19189344Y27607430D01*
X19184858Y27612284D01*
X19139852Y27652290D01*
X19532247Y27652290D01*
X19532247Y27613272D01*
X19547179Y27577224D01*
X19574769Y27549634D01*
X19610817Y27534702D01*
X19630326Y27532781D01*
X20026517Y27532781D01*
X20067420Y27350990D01*
X20058898Y27351829D01*
X19820802Y27351829D01*
X19801293Y27349908D01*
X19796752Y27348028D01*
X19791861Y27347550D01*
X19773743Y27340064D01*
X19684458Y27292445D01*
X19672327Y27284356D01*
X19670552Y27283478D01*
X19669426Y27282422D01*
X19668148Y27281569D01*
X19666894Y27280045D01*
X19656260Y27270061D01*
X19614593Y27222442D01*
X19606258Y27210786D01*
X19604866Y27209295D01*
X19604146Y27207832D01*
X19603191Y27206495D01*
X19602533Y27204551D01*
X19596217Y27191703D01*
X19560503Y27096465D01*
X19555452Y27077524D01*
X19555607Y27072955D01*
X19554395Y27068546D01*
X19554908Y27048949D01*
X19584670Y26810854D01*
X19588996Y26791734D01*
X19590038Y26789901D01*
X19590387Y26787820D01*
X19599098Y26770259D01*
X19658621Y26675020D01*
X19662655Y26669787D01*
X19663679Y26667676D01*
X19667321Y26663735D01*
X19670590Y26659495D01*
X19672495Y26658137D01*
X19676984Y26653279D01*
X19730556Y26605660D01*
X19735987Y26601713D01*
X19737579Y26599963D01*
X19742132Y26597246D01*
X19746414Y26594134D01*
X19748644Y26593361D01*
X19754413Y26589918D01*
X19855603Y26542299D01*
X19874074Y26535730D01*
X19876464Y26535618D01*
X19878674Y26534702D01*
X19898183Y26532781D01*
X20136279Y26532781D01*
X20155788Y26534702D01*
X20160328Y26536583D01*
X20165220Y26537060D01*
X20183338Y26544546D01*
X20272623Y26592165D01*
X20284756Y26600256D01*
X20286530Y26601133D01*
X20287653Y26602188D01*
X20288933Y26603041D01*
X20290186Y26604566D01*
X20300822Y26614550D01*
X20342489Y26662170D01*
X20353890Y26678117D01*
X20366390Y26715079D01*
X20363795Y26754011D01*
X20346498Y26788986D01*
X20317134Y26814679D01*
X20280172Y26827179D01*
X20241241Y26824584D01*
X20206266Y26807287D01*
X20191973Y26793870D01*
X20162356Y26760023D01*
X20111279Y26732781D01*
X19920537Y26732781D01*
X19852638Y26764734D01*
X19820600Y26793213D01*
X19780389Y26857550D01*
X19756419Y27049311D01*
X19777092Y27104438D01*
X19794723Y27124588D01*
X19845802Y27151829D01*
X20036544Y27151829D01*
X20104444Y27119876D01*
X20147224Y27081849D01*
X20163082Y27070324D01*
X20170803Y27067646D01*
X20177710Y27063276D01*
X20189062Y27061312D01*
X20199945Y27057536D01*
X20208102Y27058016D01*
X20216156Y27056622D01*
X20227395Y27059151D01*
X20238896Y27059827D01*
X20246248Y27063392D01*
X20254223Y27065186D01*
X20263640Y27071825D01*
X20274005Y27076850D01*
X20279435Y27082959D01*
X20286114Y27087667D01*
X20292270Y27097400D01*
X20299927Y27106012D01*
X20302606Y27113736D01*
X20306975Y27120641D01*
X20308939Y27131992D01*
X20312715Y27142875D01*
X20312235Y27151034D01*
X20313629Y27159087D01*
X20311221Y27178542D01*
X20204627Y27652290D01*
X20437009Y27652290D01*
X20437009Y27613272D01*
X20451941Y27577224D01*
X20464377Y27562070D01*
X20700206Y27326242D01*
X20636839Y27292445D01*
X20624708Y27284356D01*
X20622933Y27283478D01*
X20621807Y27282422D01*
X20620529Y27281569D01*
X20619275Y27280045D01*
X20608641Y27270061D01*
X20566974Y27222442D01*
X20558639Y27210786D01*
X20557247Y27209295D01*
X20556527Y27207832D01*
X20555572Y27206495D01*
X20554914Y27204551D01*
X20548598Y27191703D01*
X20512884Y27096465D01*
X20507833Y27077524D01*
X20507988Y27072955D01*
X20506776Y27068546D01*
X20507289Y27048949D01*
X20537051Y26810854D01*
X20541377Y26791734D01*
X20542419Y26789901D01*
X20542768Y26787820D01*
X20551479Y26770259D01*
X20611002Y26675020D01*
X20615036Y26669787D01*
X20616060Y26667676D01*
X20619702Y26663735D01*
X20622971Y26659495D01*
X20624876Y26658137D01*
X20629365Y26653279D01*
X20682937Y26605660D01*
X20688368Y26601713D01*
X20689960Y26599963D01*
X20694513Y26597246D01*
X20698795Y26594134D01*
X20701025Y26593361D01*
X20706794Y26589918D01*
X20807984Y26542299D01*
X20826455Y26535730D01*
X20828845Y26535618D01*
X20831055Y26534702D01*
X20850564Y26532781D01*
X21136279Y26532781D01*
X21155788Y26534702D01*
X21160328Y26536583D01*
X21165220Y26537060D01*
X21183338Y26544546D01*
X21272623Y26592165D01*
X21284756Y26600256D01*
X21286530Y26601133D01*
X21287653Y26602188D01*
X21288933Y26603041D01*
X21290186Y26604566D01*
X21300822Y26614550D01*
X21342489Y26662170D01*
X21353890Y26678117D01*
X21366390Y26715079D01*
X21363795Y26754011D01*
X21346498Y26788986D01*
X21317134Y26814679D01*
X21280172Y26827179D01*
X21241241Y26824584D01*
X21206266Y26807287D01*
X21191973Y26793870D01*
X21162356Y26760023D01*
X21111279Y26732781D01*
X20872918Y26732781D01*
X20805019Y26764734D01*
X20772981Y26793213D01*
X20732770Y26857550D01*
X20708800Y27049311D01*
X20729473Y27104438D01*
X20747104Y27124588D01*
X20798183Y27151829D01*
X20916041Y27151829D01*
X20935550Y27153750D01*
X20971598Y27168682D01*
X20999188Y27196272D01*
X21014120Y27232320D01*
X21014120Y27271338D01*
X21000852Y27303369D01*
X20999188Y27307387D01*
X20986751Y27322540D01*
X20859792Y27449499D01*
X21411538Y27449499D01*
X21412051Y27429902D01*
X21423955Y27334664D01*
X21425798Y27326517D01*
X21425894Y27323936D01*
X21427317Y27319803D01*
X21428281Y27315544D01*
X21429556Y27313302D01*
X21432277Y27305401D01*
X21497754Y27162544D01*
X21507629Y27145609D01*
X21508438Y27144858D01*
X21508919Y27143866D01*
X21522224Y27129469D01*
X21968498Y26732781D01*
X21612469Y26732781D01*
X21592960Y26730860D01*
X21556912Y26715928D01*
X21529322Y26688338D01*
X21514390Y26652290D01*
X21514390Y26613272D01*
X21529322Y26577224D01*
X21556912Y26549634D01*
X21592960Y26534702D01*
X21612469Y26532781D01*
X22231517Y26532781D01*
X22251026Y26534702D01*
X22253778Y26535843D01*
X22256752Y26536017D01*
X22271713Y26543272D01*
X22287074Y26549634D01*
X22289180Y26551741D01*
X22291861Y26553040D01*
X22302909Y26565470D01*
X22314664Y26577224D01*
X22315803Y26579976D01*
X22317783Y26582202D01*
X22323232Y26597910D01*
X22329596Y26613272D01*
X22329596Y26616252D01*
X22330572Y26619065D01*
X22329596Y26635659D01*
X22329596Y26652290D01*
X22328455Y26655043D01*
X22328281Y26658016D01*
X22321026Y26672978D01*
X22314664Y26688338D01*
X22312557Y26690445D01*
X22311258Y26693125D01*
X22297953Y26707522D01*
X21670807Y27264986D01*
X21620502Y27374741D01*
X21613562Y27430262D01*
X21634235Y27485390D01*
X21651866Y27505540D01*
X21702945Y27532781D01*
X21893687Y27532781D01*
X21961585Y27500829D01*
X22004366Y27462802D01*
X22020223Y27451277D01*
X22057086Y27438488D01*
X22096037Y27440779D01*
X22131146Y27457801D01*
X22157068Y27486964D01*
X22169857Y27523826D01*
X22167566Y27562777D01*
X22150544Y27597887D01*
X22137239Y27612284D01*
X22083668Y27659903D01*
X22078235Y27663852D01*
X22076645Y27665599D01*
X22072093Y27668315D01*
X22067810Y27671428D01*
X22065579Y27672202D01*
X22059811Y27675644D01*
X21958621Y27723263D01*
X21940151Y27729832D01*
X21937759Y27729945D01*
X21935550Y27730860D01*
X21916041Y27732781D01*
X21677945Y27732781D01*
X21658436Y27730860D01*
X21653895Y27728980D01*
X21649004Y27728502D01*
X21630886Y27721016D01*
X21541601Y27673397D01*
X21529470Y27665308D01*
X21527695Y27664430D01*
X21526569Y27663374D01*
X21525291Y27662521D01*
X21524037Y27660997D01*
X21513403Y27651013D01*
X21471736Y27603394D01*
X21463401Y27591738D01*
X21462009Y27590247D01*
X21461289Y27588784D01*
X21460334Y27587447D01*
X21459676Y27585503D01*
X21453360Y27572655D01*
X21417646Y27477417D01*
X21412595Y27458476D01*
X21412750Y27453908D01*
X21411538Y27449499D01*
X20859792Y27449499D01*
X20776510Y27532781D01*
X21154136Y27532781D01*
X21173645Y27534702D01*
X21209693Y27549634D01*
X21237283Y27577224D01*
X21252215Y27613272D01*
X21252215Y27652290D01*
X21237283Y27688338D01*
X21209693Y27715928D01*
X21173645Y27730860D01*
X21154136Y27732781D01*
X20535088Y27732781D01*
X20515579Y27730860D01*
X20479531Y27715928D01*
X20451941Y27688338D01*
X20437009Y27652290D01*
X20204627Y27652290D01*
X20204078Y27654732D01*
X20197921Y27673344D01*
X20192959Y27680384D01*
X20189664Y27688338D01*
X20181828Y27696174D01*
X20175441Y27705235D01*
X20168162Y27709840D01*
X20162074Y27715928D01*
X20151832Y27720171D01*
X20142467Y27726095D01*
X20133984Y27727564D01*
X20126026Y27730860D01*
X20106517Y27732781D01*
X19630326Y27732781D01*
X19610817Y27730860D01*
X19574769Y27715928D01*
X19547179Y27688338D01*
X19532247Y27652290D01*
X19139852Y27652290D01*
X19131287Y27659903D01*
X19125854Y27663852D01*
X19124264Y27665599D01*
X19119712Y27668315D01*
X19115429Y27671428D01*
X19113198Y27672202D01*
X19107430Y27675644D01*
X19006238Y27723263D01*
X18987768Y27729832D01*
X18985377Y27729945D01*
X18983168Y27730860D01*
X18963659Y27732781D01*
X18868421Y27732781D01*
X18848912Y27730860D01*
X18844371Y27728980D01*
X18839480Y27728502D01*
X18821362Y27721016D01*
X18732077Y27673397D01*
X18719946Y27665308D01*
X18718171Y27664430D01*
X18717045Y27663374D01*
X18715767Y27662521D01*
X18714513Y27660997D01*
X18703879Y27651013D01*
X18662212Y27603394D01*
X18653877Y27591738D01*
X18652485Y27590247D01*
X18651765Y27588784D01*
X18650810Y27587447D01*
X18650152Y27585503D01*
X18643836Y27572655D01*
X18608122Y27477417D01*
X18607440Y27474861D01*
X18606853Y27473828D01*
X18605106Y27466111D01*
X18603071Y27458476D01*
X18603111Y27457291D01*
X18602527Y27454708D01*
X18578717Y27264233D01*
X18578620Y27260536D01*
X18578204Y27259022D01*
X10605657Y27259022D01*
X10605657Y28928901D01*
X10716768Y28928901D01*
X10716768Y28889883D01*
X10731700Y28853835D01*
X10759290Y28826245D01*
X10795338Y28811313D01*
X10814847Y28809392D01*
X10887732Y28809392D01*
X10955629Y28777441D01*
X10987665Y28748965D01*
X11027878Y28684624D01*
X11084667Y28230322D01*
X11088993Y28211202D01*
X11108281Y28177284D01*
X11139080Y28153329D01*
X11176702Y28142984D01*
X11215419Y28147823D01*
X11249336Y28167111D01*
X11273291Y28197910D01*
X11283636Y28235532D01*
X11283123Y28255129D01*
X11218298Y28773728D01*
X11447249Y28773728D01*
X11447762Y28754131D01*
X11459667Y28658893D01*
X11463993Y28639773D01*
X11465886Y28636444D01*
X11466647Y28632692D01*
X11475469Y28619593D01*
X11483281Y28605856D01*
X11486304Y28603505D01*
X11488443Y28600329D01*
X11501607Y28591602D01*
X11514080Y28581901D01*
X11517772Y28580886D01*
X11520964Y28578770D01*
X11539744Y28573148D01*
X11956746Y28491782D01*
X11968516Y28397627D01*
X11954709Y28360811D01*
X11920800Y28342725D01*
X11777677Y28342725D01*
X11696713Y28380826D01*
X11678243Y28387395D01*
X11639268Y28389233D01*
X11602556Y28376017D01*
X11573696Y28349758D01*
X11557082Y28314454D01*
X11555244Y28275479D01*
X11568460Y28238767D01*
X11594719Y28209907D01*
X11611553Y28199862D01*
X11712743Y28152243D01*
X11731214Y28145674D01*
X11733604Y28145562D01*
X11735814Y28144646D01*
X11755323Y28142725D01*
X11945800Y28142725D01*
X11965309Y28144646D01*
X11969849Y28146527D01*
X11974741Y28147004D01*
X11992859Y28154490D01*
X12082144Y28202109D01*
X12091047Y28208047D01*
X12093430Y28209129D01*
X12094683Y28210472D01*
X12098454Y28212985D01*
X12108868Y28225653D01*
X12120069Y28237639D01*
X12122069Y28241708D01*
X12123234Y28243124D01*
X12123995Y28245625D01*
X12127433Y28252618D01*
X12322482Y28252618D01*
X12326270Y28213784D01*
X12344632Y28179356D01*
X12374771Y28154576D01*
X12412098Y28143216D01*
X12450932Y28147004D01*
X12469050Y28154490D01*
X12558335Y28202109D01*
X12567238Y28208047D01*
X12569621Y28209129D01*
X12570874Y28210472D01*
X12574645Y28212985D01*
X12585059Y28225653D01*
X12596260Y28237639D01*
X12598260Y28241708D01*
X12599425Y28243124D01*
X12600186Y28245625D01*
X12603624Y28252618D01*
X12846292Y28252618D01*
X12850080Y28213784D01*
X12868442Y28179356D01*
X12898581Y28154576D01*
X12935908Y28143216D01*
X12974742Y28147004D01*
X12992860Y28154490D01*
X13082145Y28202109D01*
X13091048Y28208047D01*
X13093431Y28209129D01*
X13094684Y28210472D01*
X13098455Y28212985D01*
X13108869Y28225653D01*
X13120070Y28237639D01*
X13122070Y28241708D01*
X13123235Y28243124D01*
X13123996Y28245625D01*
X13128719Y28255231D01*
X13164434Y28350470D01*
X13169485Y28369411D01*
X13169329Y28373982D01*
X13170542Y28378390D01*
X13170029Y28397987D01*
X13129014Y28726109D01*
X13357964Y28726109D01*
X13358477Y28706512D01*
X13394192Y28420798D01*
X13398518Y28401678D01*
X13399560Y28399845D01*
X13399909Y28397764D01*
X13408620Y28380203D01*
X13468143Y28284964D01*
X13472177Y28279731D01*
X13473201Y28277620D01*
X13476843Y28273679D01*
X13480112Y28269439D01*
X13482017Y28268081D01*
X13486506Y28263223D01*
X13540078Y28215604D01*
X13545509Y28211657D01*
X13547101Y28209907D01*
X13551654Y28207190D01*
X13555936Y28204078D01*
X13558166Y28203305D01*
X13563935Y28199862D01*
X13665125Y28152243D01*
X13683596Y28145674D01*
X13685986Y28145562D01*
X13688196Y28144646D01*
X13707705Y28142725D01*
X13850563Y28142725D01*
X13870072Y28144646D01*
X13874612Y28146527D01*
X13879504Y28147004D01*
X13897622Y28154490D01*
X13986907Y28202109D01*
X13999040Y28210200D01*
X14000814Y28211077D01*
X14001937Y28212132D01*
X14003217Y28212985D01*
X14004470Y28214510D01*
X14015106Y28224494D01*
X14056773Y28272114D01*
X14065104Y28283768D01*
X14066499Y28285260D01*
X14067220Y28286727D01*
X14068174Y28288061D01*
X14068830Y28290003D01*
X14075148Y28302852D01*
X14110862Y28398090D01*
X14115913Y28417031D01*
X14115757Y28421601D01*
X14116970Y28426009D01*
X14116457Y28445606D01*
X14080743Y28731319D01*
X14076417Y28750439D01*
X14075373Y28752275D01*
X14075025Y28754355D01*
X14066315Y28771916D01*
X14006791Y28867154D01*
X14002755Y28872389D01*
X14001733Y28874498D01*
X13998093Y28878436D01*
X13994822Y28882680D01*
X13992914Y28884041D01*
X13988428Y28888895D01*
X13943422Y28928901D01*
X14145341Y28928901D01*
X14145341Y28889883D01*
X14160273Y28853835D01*
X14187863Y28826245D01*
X14223911Y28811313D01*
X14243420Y28809392D01*
X14316305Y28809392D01*
X14384202Y28777441D01*
X14416238Y28748965D01*
X14456451Y28684624D01*
X14513240Y28230322D01*
X14517566Y28211202D01*
X14536854Y28177284D01*
X14567653Y28153329D01*
X14605275Y28142984D01*
X14643992Y28147823D01*
X14677909Y28167111D01*
X14701864Y28197910D01*
X14712209Y28235532D01*
X14711696Y28255129D01*
X14628362Y28921796D01*
X14626754Y28928901D01*
X14764389Y28928901D01*
X14764389Y28889883D01*
X14779321Y28853835D01*
X14806911Y28826245D01*
X14842959Y28811313D01*
X14862468Y28809392D01*
X15012285Y28809392D01*
X15063756Y28397627D01*
X15049949Y28360811D01*
X15016040Y28342725D01*
X14945801Y28342725D01*
X14926292Y28340804D01*
X14890244Y28325872D01*
X14862654Y28298282D01*
X14847722Y28262234D01*
X14847722Y28223216D01*
X14862654Y28187168D01*
X14890244Y28159578D01*
X14926292Y28144646D01*
X14945801Y28142725D01*
X15041040Y28142725D01*
X15060549Y28144646D01*
X15065089Y28146527D01*
X15069981Y28147004D01*
X15088099Y28154490D01*
X15177384Y28202109D01*
X15186287Y28208047D01*
X15188670Y28209129D01*
X15189923Y28210472D01*
X15193694Y28212985D01*
X15204108Y28225653D01*
X15215309Y28237639D01*
X15217309Y28241708D01*
X15218474Y28243124D01*
X15219235Y28245625D01*
X15223958Y28255231D01*
X15259673Y28350470D01*
X15264724Y28369411D01*
X15264568Y28373982D01*
X15265781Y28378390D01*
X15265268Y28397987D01*
X15218300Y28773728D01*
X15494870Y28773728D01*
X15495383Y28754132D01*
X15560859Y28230322D01*
X15565185Y28211202D01*
X15584473Y28177284D01*
X15615272Y28153329D01*
X15652894Y28142984D01*
X15691610Y28147824D01*
X15725528Y28167111D01*
X15749483Y28197910D01*
X15759828Y28235532D01*
X15759315Y28255129D01*
X15696894Y28754492D01*
X15710700Y28791307D01*
X15744611Y28809392D01*
X15840115Y28809392D01*
X15908012Y28777441D01*
X15922669Y28764413D01*
X15989431Y28230322D01*
X15993757Y28211202D01*
X16013045Y28177284D01*
X16043844Y28153329D01*
X16081466Y28142984D01*
X16120183Y28147823D01*
X16154100Y28167111D01*
X16178055Y28197910D01*
X16188400Y28235532D01*
X16187887Y28255129D01*
X16129014Y28726109D01*
X16357965Y28726109D01*
X16358478Y28706512D01*
X16394193Y28420798D01*
X16398519Y28401678D01*
X16399561Y28399845D01*
X16399910Y28397764D01*
X16408621Y28380203D01*
X16468144Y28284964D01*
X16472178Y28279731D01*
X16473202Y28277620D01*
X16476844Y28273679D01*
X16480113Y28269439D01*
X16482018Y28268081D01*
X16486507Y28263223D01*
X16540079Y28215604D01*
X16545510Y28211657D01*
X16547102Y28209907D01*
X16551655Y28207190D01*
X16555937Y28204078D01*
X16558167Y28203305D01*
X16563936Y28199862D01*
X16665126Y28152243D01*
X16683597Y28145674D01*
X16685987Y28145562D01*
X16688197Y28144646D01*
X16707706Y28142725D01*
X16850564Y28142725D01*
X16870073Y28144646D01*
X16874613Y28146527D01*
X16879505Y28147004D01*
X16897623Y28154490D01*
X16986908Y28202109D01*
X16999041Y28210200D01*
X17000815Y28211077D01*
X17001938Y28212132D01*
X17003218Y28212985D01*
X17004471Y28214510D01*
X17015107Y28224494D01*
X17056774Y28272114D01*
X17065105Y28283768D01*
X17066500Y28285260D01*
X17067221Y28286727D01*
X17068175Y28288061D01*
X17068831Y28290003D01*
X17075149Y28302852D01*
X17110863Y28398090D01*
X17115914Y28417031D01*
X17115758Y28421601D01*
X17116971Y28426009D01*
X17116458Y28445606D01*
X17080744Y28731319D01*
X17076418Y28750439D01*
X17075374Y28752275D01*
X17075026Y28754355D01*
X17066316Y28771916D01*
X17006792Y28867154D01*
X17002756Y28872389D01*
X17001734Y28874498D01*
X16998094Y28878436D01*
X16994823Y28882680D01*
X16992915Y28884041D01*
X16988429Y28888895D01*
X16934858Y28936514D01*
X16929425Y28940463D01*
X16927835Y28942210D01*
X16923283Y28944926D01*
X16919000Y28948039D01*
X16916769Y28948813D01*
X16911001Y28952255D01*
X16809809Y28999874D01*
X16791339Y29006443D01*
X16788948Y29006556D01*
X16786739Y29007471D01*
X16767230Y29009392D01*
X16624373Y29009392D01*
X16604864Y29007471D01*
X16600323Y29005591D01*
X16595432Y29005113D01*
X16577315Y28997628D01*
X16488028Y28950008D01*
X16475890Y28941915D01*
X16474121Y28941040D01*
X16473000Y28939989D01*
X16471718Y28939133D01*
X16470460Y28937604D01*
X16459829Y28927623D01*
X16418163Y28880004D01*
X16409834Y28868355D01*
X16408437Y28866859D01*
X16407714Y28865389D01*
X16406762Y28864057D01*
X16406106Y28862119D01*
X16399788Y28849267D01*
X16364073Y28754029D01*
X16359022Y28735088D01*
X16359177Y28730518D01*
X16357965Y28726109D01*
X16129014Y28726109D01*
X16104553Y28921796D01*
X16100227Y28940916D01*
X16080939Y28974833D01*
X16050140Y28998788D01*
X16012518Y29009133D01*
X15973801Y29004294D01*
X15939884Y28985006D01*
X15939015Y28983890D01*
X15905047Y28999874D01*
X15886577Y29006443D01*
X15884186Y29006556D01*
X15881977Y29007471D01*
X15862468Y29009392D01*
X15719611Y29009392D01*
X15700102Y29007471D01*
X15695561Y29005591D01*
X15690670Y29005113D01*
X15672553Y28997628D01*
X15583266Y28950008D01*
X15574357Y28944069D01*
X15571979Y28942987D01*
X15570727Y28941648D01*
X15566956Y28939133D01*
X15556530Y28926453D01*
X15545341Y28914477D01*
X15543343Y28910414D01*
X15542176Y28908994D01*
X15541413Y28906489D01*
X15536692Y28896885D01*
X15500978Y28801647D01*
X15495927Y28782706D01*
X15496082Y28778137D01*
X15494870Y28773728D01*
X15218300Y28773728D01*
X15213842Y28809392D01*
X15243420Y28809392D01*
X15262929Y28811313D01*
X15298977Y28826245D01*
X15326567Y28853835D01*
X15341499Y28889883D01*
X15341499Y28928901D01*
X15326567Y28964949D01*
X15298977Y28992539D01*
X15262929Y29007471D01*
X15243420Y29009392D01*
X15188842Y29009392D01*
X15169962Y29160429D01*
X17209738Y29160429D01*
X17212333Y29121497D01*
X17229629Y29086522D01*
X17258993Y29060828D01*
X17295955Y29048328D01*
X17334887Y29050923D01*
X17369862Y29068219D01*
X17384154Y29081636D01*
X17408400Y29109347D01*
X17504364Y29142725D01*
X17567098Y29142725D01*
X17680890Y29106312D01*
X17761478Y29034677D01*
X17808070Y28960131D01*
X17871843Y28790068D01*
X17886689Y28671297D01*
X17865891Y28504910D01*
X17840701Y28437736D01*
X17786773Y28376104D01*
X17690810Y28342725D01*
X17628079Y28342725D01*
X17514286Y28379139D01*
X17476524Y28412705D01*
X17460666Y28424230D01*
X17423803Y28437019D01*
X17384853Y28434728D01*
X17349743Y28417706D01*
X17323821Y28388543D01*
X17311032Y28351680D01*
X17313323Y28312730D01*
X17330345Y28277620D01*
X17343650Y28263223D01*
X17397222Y28215604D01*
X17413080Y28204078D01*
X17414244Y28203675D01*
X17415186Y28202877D01*
X17433181Y28195102D01*
X17581990Y28147483D01*
X17590548Y28145645D01*
X17592959Y28144646D01*
X17597091Y28144240D01*
X17601156Y28143366D01*
X17603758Y28143583D01*
X17612468Y28142725D01*
X17707706Y28142725D01*
X17718929Y28143831D01*
X17721501Y28143681D01*
X17724322Y28144362D01*
X17727215Y28144646D01*
X17729596Y28145633D01*
X17740558Y28148275D01*
X17877463Y28195894D01*
X17895258Y28204118D01*
X17899947Y28208294D01*
X17905577Y28211077D01*
X17919869Y28224494D01*
X18003202Y28319733D01*
X18011530Y28331383D01*
X18012928Y28332878D01*
X18013650Y28334349D01*
X18014603Y28335680D01*
X18015258Y28337619D01*
X18021577Y28350470D01*
X18057292Y28445708D01*
X18057974Y28448267D01*
X18058561Y28449298D01*
X18060305Y28457010D01*
X18062343Y28464649D01*
X18062302Y28465836D01*
X18062887Y28468418D01*
X18086696Y28658894D01*
X18086792Y28662590D01*
X18087209Y28664103D01*
X18087020Y28671297D01*
X18087209Y28678490D01*
X18086792Y28680004D01*
X18086696Y28683700D01*
X18068839Y28826557D01*
X18068254Y28829140D01*
X18068295Y28830325D01*
X18066259Y28837960D01*
X18064513Y28845677D01*
X18063925Y28846710D01*
X18063244Y28849266D01*
X18033381Y28928901D01*
X18145342Y28928901D01*
X18145342Y28889883D01*
X18160274Y28853835D01*
X18187864Y28826245D01*
X18223912Y28811313D01*
X18243421Y28809392D01*
X18316306Y28809392D01*
X18384203Y28777441D01*
X18416239Y28748965D01*
X18456452Y28684624D01*
X18513241Y28230322D01*
X18517567Y28211202D01*
X18536855Y28177284D01*
X18567654Y28153329D01*
X18605276Y28142984D01*
X18643993Y28147823D01*
X18677910Y28167111D01*
X18701865Y28197910D01*
X18712210Y28235532D01*
X18711697Y28255129D01*
X18652824Y28726109D01*
X18881775Y28726109D01*
X18882288Y28706512D01*
X18918003Y28420798D01*
X18922329Y28401678D01*
X18923371Y28399845D01*
X18923720Y28397764D01*
X18932431Y28380203D01*
X18991954Y28284964D01*
X18995988Y28279731D01*
X18997012Y28277620D01*
X19000654Y28273679D01*
X19003923Y28269439D01*
X19005828Y28268081D01*
X19010317Y28263223D01*
X19063889Y28215604D01*
X19069320Y28211657D01*
X19070912Y28209907D01*
X19075465Y28207190D01*
X19079747Y28204078D01*
X19081977Y28203305D01*
X19087746Y28199862D01*
X19188936Y28152243D01*
X19207407Y28145674D01*
X19209797Y28145562D01*
X19212007Y28144646D01*
X19231516Y28142725D01*
X19374374Y28142725D01*
X19393883Y28144646D01*
X19398423Y28146527D01*
X19403315Y28147004D01*
X19421433Y28154490D01*
X19510718Y28202109D01*
X19522851Y28210200D01*
X19524625Y28211077D01*
X19525748Y28212132D01*
X19527028Y28212985D01*
X19528281Y28214510D01*
X19538917Y28224494D01*
X19580584Y28272114D01*
X19588915Y28283768D01*
X19590310Y28285260D01*
X19591031Y28286727D01*
X19591985Y28288061D01*
X19592641Y28290003D01*
X19598959Y28302852D01*
X19634673Y28398090D01*
X19639724Y28417031D01*
X19639568Y28421601D01*
X19640781Y28426009D01*
X19640268Y28445606D01*
X19604554Y28731319D01*
X19600228Y28750439D01*
X19599184Y28752275D01*
X19598836Y28754355D01*
X19590126Y28771916D01*
X19530602Y28867154D01*
X19526566Y28872389D01*
X19525544Y28874498D01*
X19521904Y28878436D01*
X19518633Y28882680D01*
X19516725Y28884041D01*
X19512239Y28888895D01*
X19467233Y28928901D01*
X19669152Y28928901D01*
X19669152Y28889883D01*
X19684084Y28853835D01*
X19711674Y28826245D01*
X19747722Y28811313D01*
X19767231Y28809392D01*
X19917048Y28809392D01*
X19968519Y28397627D01*
X19954712Y28360811D01*
X19920803Y28342725D01*
X19850564Y28342725D01*
X19831055Y28340804D01*
X19795007Y28325872D01*
X19767417Y28298282D01*
X19752485Y28262234D01*
X19752485Y28223216D01*
X19767417Y28187168D01*
X19795007Y28159578D01*
X19831055Y28144646D01*
X19850564Y28142725D01*
X19945803Y28142725D01*
X19965312Y28144646D01*
X19969852Y28146527D01*
X19974744Y28147004D01*
X19992862Y28154490D01*
X20082147Y28202109D01*
X20091050Y28208047D01*
X20093433Y28209129D01*
X20094686Y28210472D01*
X20098457Y28212985D01*
X20108871Y28225653D01*
X20120072Y28237639D01*
X20122072Y28241708D01*
X20123237Y28243124D01*
X20123998Y28245625D01*
X20128721Y28255231D01*
X20164436Y28350470D01*
X20169487Y28369411D01*
X20169331Y28373982D01*
X20170544Y28378390D01*
X20170031Y28397987D01*
X20129015Y28726109D01*
X20357966Y28726109D01*
X20358479Y28706512D01*
X20394194Y28420798D01*
X20398520Y28401678D01*
X20399562Y28399845D01*
X20399911Y28397764D01*
X20408622Y28380203D01*
X20468145Y28284964D01*
X20472179Y28279731D01*
X20473203Y28277620D01*
X20476845Y28273679D01*
X20480114Y28269439D01*
X20482019Y28268081D01*
X20486508Y28263223D01*
X20540080Y28215604D01*
X20545511Y28211657D01*
X20547103Y28209907D01*
X20551656Y28207190D01*
X20555938Y28204078D01*
X20558168Y28203305D01*
X20563937Y28199862D01*
X20665127Y28152243D01*
X20683598Y28145674D01*
X20685988Y28145562D01*
X20688198Y28144646D01*
X20707707Y28142725D01*
X20850565Y28142725D01*
X20870074Y28144646D01*
X20874614Y28146527D01*
X20879506Y28147004D01*
X20897624Y28154490D01*
X20986909Y28202109D01*
X20999042Y28210200D01*
X21000816Y28211077D01*
X21001939Y28212132D01*
X21003219Y28212985D01*
X21004472Y28214510D01*
X21015108Y28224494D01*
X21056775Y28272114D01*
X21065106Y28283768D01*
X21066501Y28285260D01*
X21067222Y28286727D01*
X21068176Y28288061D01*
X21068832Y28290003D01*
X21075150Y28302852D01*
X21110864Y28398090D01*
X21115915Y28417031D01*
X21115759Y28421601D01*
X21116972Y28426009D01*
X21116459Y28445606D01*
X21080745Y28731319D01*
X21076419Y28750439D01*
X21075375Y28752275D01*
X21075027Y28754355D01*
X21066317Y28771916D01*
X21006793Y28867154D01*
X21002757Y28872389D01*
X21001735Y28874498D01*
X20998095Y28878436D01*
X20994824Y28882680D01*
X20992916Y28884041D01*
X20988430Y28888895D01*
X20934859Y28936514D01*
X20929426Y28940463D01*
X20927836Y28942210D01*
X20923284Y28944926D01*
X20919001Y28948039D01*
X20916770Y28948813D01*
X20911002Y28952255D01*
X20809810Y28999874D01*
X20791340Y29006443D01*
X20788949Y29006556D01*
X20786740Y29007471D01*
X20767231Y29009392D01*
X20624374Y29009392D01*
X20604865Y29007471D01*
X20600324Y29005591D01*
X20595433Y29005113D01*
X20577316Y28997628D01*
X20488029Y28950008D01*
X20475891Y28941915D01*
X20474122Y28941040D01*
X20473001Y28939989D01*
X20471719Y28939133D01*
X20470461Y28937604D01*
X20459830Y28927623D01*
X20418164Y28880004D01*
X20409835Y28868355D01*
X20408438Y28866859D01*
X20407715Y28865389D01*
X20406763Y28864057D01*
X20406107Y28862119D01*
X20399789Y28849267D01*
X20364074Y28754029D01*
X20359023Y28735088D01*
X20359178Y28730518D01*
X20357966Y28726109D01*
X20129015Y28726109D01*
X20118605Y28809392D01*
X20148183Y28809392D01*
X20167692Y28811313D01*
X20203740Y28826245D01*
X20231330Y28853835D01*
X20246262Y28889883D01*
X20246262Y28928901D01*
X20231330Y28964949D01*
X20203740Y28992539D01*
X20167692Y29007471D01*
X20148183Y29009392D01*
X20093605Y29009392D01*
X20063754Y29248200D01*
X21244762Y29248200D01*
X21244950Y29246877D01*
X21245384Y29230322D01*
X21370384Y28230322D01*
X21374710Y28211202D01*
X21393998Y28177284D01*
X21424797Y28153329D01*
X21462419Y28142984D01*
X21501136Y28147823D01*
X21535053Y28167111D01*
X21559008Y28197910D01*
X21569353Y28235532D01*
X21568840Y28255129D01*
X21503507Y28777788D01*
X21681167Y28477518D01*
X21686616Y28470083D01*
X21687775Y28467721D01*
X21689387Y28466302D01*
X21692755Y28461706D01*
X21705289Y28452300D01*
X21717059Y28441936D01*
X21720802Y28440657D01*
X21723962Y28438286D01*
X21739137Y28434393D01*
X21753982Y28429321D01*
X21757928Y28429572D01*
X21761756Y28428590D01*
X21777273Y28430802D01*
X21792921Y28431796D01*
X21796469Y28433538D01*
X21800384Y28434095D01*
X21813880Y28442081D01*
X21827950Y28448984D01*
X21830561Y28451950D01*
X21833964Y28453963D01*
X21843372Y28466500D01*
X21853735Y28478268D01*
X21856096Y28483454D01*
X21857385Y28485170D01*
X21858038Y28487717D01*
X21861860Y28496108D01*
X21965800Y28800325D01*
X22037051Y28230322D01*
X22041377Y28211202D01*
X22060665Y28177284D01*
X22091464Y28153329D01*
X22129086Y28142984D01*
X22167803Y28147823D01*
X22201720Y28167111D01*
X22225675Y28197910D01*
X22236020Y28235532D01*
X22235507Y28255129D01*
X22110507Y29255128D01*
X22108087Y29265821D01*
X22107923Y29268415D01*
X22107139Y29270012D01*
X22106181Y29274249D01*
X22098011Y29288616D01*
X22090735Y29303444D01*
X22088418Y29305484D01*
X22086893Y29308166D01*
X22073858Y29318305D01*
X22061451Y29329229D01*
X22058528Y29330228D01*
X22056094Y29332121D01*
X22040172Y29336500D01*
X22024528Y29341844D01*
X22021446Y29341649D01*
X22018472Y29342466D01*
X22002078Y29340418D01*
X21985589Y29339369D01*
X21982819Y29338010D01*
X21979755Y29337627D01*
X21965388Y29329458D01*
X21950560Y29322181D01*
X21948520Y29319865D01*
X21945838Y29318339D01*
X21935699Y29305305D01*
X21924775Y29292897D01*
X21922974Y29288943D01*
X21921883Y29287540D01*
X21921193Y29285035D01*
X21916650Y29275057D01*
X21742774Y28766156D01*
X21430676Y29293646D01*
X21420885Y29307007D01*
X21420226Y29308166D01*
X21419783Y29308511D01*
X21419089Y29309458D01*
X21404158Y29320663D01*
X21389427Y29332121D01*
X21388581Y29332354D01*
X21387881Y29332879D01*
X21369811Y29337515D01*
X21351805Y29342466D01*
X21350935Y29342358D01*
X21350087Y29342575D01*
X21331619Y29339944D01*
X21313088Y29337627D01*
X21312325Y29337194D01*
X21311459Y29337070D01*
X21295384Y29327560D01*
X21279171Y29318339D01*
X21278634Y29317649D01*
X21277879Y29317202D01*
X21266674Y29302272D01*
X21255216Y29287540D01*
X21254983Y29286695D01*
X21254458Y29285994D01*
X21249822Y29267925D01*
X21244871Y29249918D01*
X21244901Y29248745D01*
X21244762Y29248200D01*
X20063754Y29248200D01*
X20062888Y29255129D01*
X20058562Y29274249D01*
X20039274Y29308166D01*
X20008475Y29332121D01*
X19970853Y29342466D01*
X19932136Y29337627D01*
X19898219Y29318339D01*
X19874264Y29287540D01*
X19863919Y29249918D01*
X19864432Y29230321D01*
X19892048Y29009392D01*
X19767231Y29009392D01*
X19747722Y29007471D01*
X19711674Y28992539D01*
X19684084Y28964949D01*
X19669152Y28928901D01*
X19467233Y28928901D01*
X19458668Y28936514D01*
X19453235Y28940463D01*
X19451645Y28942210D01*
X19447093Y28944926D01*
X19442810Y28948039D01*
X19440579Y28948813D01*
X19434811Y28952255D01*
X19333619Y28999874D01*
X19315149Y29006443D01*
X19312758Y29006556D01*
X19310549Y29007471D01*
X19291040Y29009392D01*
X19148183Y29009392D01*
X19128674Y29007471D01*
X19124133Y29005591D01*
X19119242Y29005113D01*
X19101125Y28997628D01*
X19011838Y28950008D01*
X18999700Y28941915D01*
X18997931Y28941040D01*
X18996810Y28939989D01*
X18995528Y28939133D01*
X18994270Y28937604D01*
X18983639Y28927623D01*
X18941973Y28880004D01*
X18933644Y28868355D01*
X18932247Y28866859D01*
X18931524Y28865389D01*
X18930572Y28864057D01*
X18929916Y28862119D01*
X18923598Y28849267D01*
X18887883Y28754029D01*
X18882832Y28735088D01*
X18882987Y28730518D01*
X18881775Y28726109D01*
X18652824Y28726109D01*
X18628363Y28921796D01*
X18624037Y28940916D01*
X18604749Y28974833D01*
X18573950Y28998788D01*
X18536328Y29009133D01*
X18497611Y29004294D01*
X18463694Y28985006D01*
X18450066Y28967485D01*
X18381238Y28999874D01*
X18362768Y29006443D01*
X18360377Y29006556D01*
X18358168Y29007471D01*
X18338659Y29009392D01*
X18243421Y29009392D01*
X18223912Y29007471D01*
X18187864Y28992539D01*
X18160274Y28964949D01*
X18145342Y28928901D01*
X18033381Y28928901D01*
X17991816Y29039742D01*
X17991712Y29039953D01*
X17991693Y29040069D01*
X17987378Y29048769D01*
X17983167Y29057334D01*
X17983087Y29057419D01*
X17982983Y29057630D01*
X17923459Y29152868D01*
X17919421Y29158106D01*
X17918400Y29160212D01*
X17914766Y29164144D01*
X17911490Y29168394D01*
X17909579Y29169757D01*
X17905095Y29174609D01*
X17797952Y29269847D01*
X17782095Y29281372D01*
X17780929Y29281777D01*
X17779988Y29282573D01*
X17761993Y29290349D01*
X17613183Y29337967D01*
X17604626Y29339805D01*
X17602215Y29340804D01*
X17598080Y29341212D01*
X17594017Y29342084D01*
X17591414Y29341868D01*
X17582706Y29342725D01*
X17487468Y29342725D01*
X17476244Y29341620D01*
X17473673Y29341769D01*
X17470851Y29341089D01*
X17467959Y29340804D01*
X17465577Y29339818D01*
X17454616Y29337175D01*
X17317712Y29289556D01*
X17299917Y29281332D01*
X17295228Y29277159D01*
X17289599Y29274374D01*
X17275307Y29260957D01*
X17233640Y29213338D01*
X17222238Y29197391D01*
X17209738Y29160429D01*
X15169962Y29160429D01*
X15158125Y29255129D01*
X15153799Y29274249D01*
X15134511Y29308166D01*
X15103712Y29332121D01*
X15066090Y29342466D01*
X15027373Y29337627D01*
X14993456Y29318339D01*
X14969501Y29287540D01*
X14959156Y29249918D01*
X14959669Y29230321D01*
X14987285Y29009392D01*
X14862468Y29009392D01*
X14842959Y29007471D01*
X14806911Y28992539D01*
X14779321Y28964949D01*
X14764389Y28928901D01*
X14626754Y28928901D01*
X14624036Y28940916D01*
X14604748Y28974833D01*
X14573949Y28998788D01*
X14536327Y29009133D01*
X14497610Y29004294D01*
X14463693Y28985006D01*
X14450065Y28967485D01*
X14381237Y28999874D01*
X14362767Y29006443D01*
X14360376Y29006556D01*
X14358167Y29007471D01*
X14338658Y29009392D01*
X14243420Y29009392D01*
X14223911Y29007471D01*
X14187863Y28992539D01*
X14160273Y28964949D01*
X14145341Y28928901D01*
X13943422Y28928901D01*
X13934857Y28936514D01*
X13929424Y28940463D01*
X13927834Y28942210D01*
X13923282Y28944926D01*
X13918999Y28948039D01*
X13916768Y28948813D01*
X13911000Y28952255D01*
X13809808Y28999874D01*
X13791338Y29006443D01*
X13788947Y29006556D01*
X13786738Y29007471D01*
X13767229Y29009392D01*
X13624372Y29009392D01*
X13604863Y29007471D01*
X13600322Y29005591D01*
X13595431Y29005113D01*
X13577314Y28997628D01*
X13488027Y28950008D01*
X13475889Y28941915D01*
X13474120Y28941040D01*
X13472999Y28939989D01*
X13471717Y28939133D01*
X13470459Y28937604D01*
X13459828Y28927623D01*
X13418162Y28880004D01*
X13409833Y28868355D01*
X13408436Y28866859D01*
X13407713Y28865389D01*
X13406761Y28864057D01*
X13406105Y28862119D01*
X13399787Y28849267D01*
X13364072Y28754029D01*
X13359021Y28735088D01*
X13359176Y28730518D01*
X13357964Y28726109D01*
X13129014Y28726109D01*
X13062886Y29255129D01*
X13058560Y29274249D01*
X13039272Y29308166D01*
X13008473Y29332121D01*
X12970851Y29342466D01*
X12932134Y29337627D01*
X12898217Y29318339D01*
X12874262Y29287540D01*
X12863917Y29249918D01*
X12864430Y29230321D01*
X12968517Y28397627D01*
X12954710Y28360811D01*
X12898742Y28330960D01*
X12882432Y28320084D01*
X12857652Y28289945D01*
X12846292Y28252618D01*
X12603624Y28252618D01*
X12604909Y28255231D01*
X12640624Y28350470D01*
X12645675Y28369411D01*
X12645519Y28373982D01*
X12646732Y28378390D01*
X12646219Y28397987D01*
X12539076Y29255129D01*
X12534750Y29274249D01*
X12515462Y29308166D01*
X12484663Y29332121D01*
X12447041Y29342466D01*
X12408324Y29337627D01*
X12374407Y29318339D01*
X12350452Y29287540D01*
X12340107Y29249918D01*
X12340620Y29230321D01*
X12444707Y28397627D01*
X12430900Y28360811D01*
X12374932Y28330960D01*
X12358622Y28320084D01*
X12333842Y28289945D01*
X12322482Y28252618D01*
X12127433Y28252618D01*
X12128718Y28255231D01*
X12164433Y28350470D01*
X12169484Y28369411D01*
X12169328Y28373982D01*
X12170541Y28378390D01*
X12170028Y28397986D01*
X12122409Y28778938D01*
X12118083Y28798059D01*
X12117039Y28799895D01*
X12116691Y28801974D01*
X12107981Y28819535D01*
X12048457Y28914773D01*
X12036488Y28930299D01*
X12029142Y28935538D01*
X12023071Y28942210D01*
X12006237Y28952255D01*
X11905045Y28999874D01*
X11886575Y29006443D01*
X11884184Y29006556D01*
X11881975Y29007471D01*
X11862466Y29009392D01*
X11671990Y29009392D01*
X11652481Y29007471D01*
X11647940Y29005591D01*
X11643049Y29005113D01*
X11624932Y28997628D01*
X11535645Y28950008D01*
X11526736Y28944069D01*
X11524358Y28942987D01*
X11523106Y28941648D01*
X11519335Y28939133D01*
X11508909Y28926453D01*
X11497720Y28914477D01*
X11495722Y28910414D01*
X11494555Y28908994D01*
X11493792Y28906489D01*
X11489071Y28896885D01*
X11453357Y28801647D01*
X11448306Y28782706D01*
X11448461Y28778137D01*
X11447249Y28773728D01*
X11218298Y28773728D01*
X11199789Y28921796D01*
X11195463Y28940916D01*
X11176175Y28974833D01*
X11145376Y28998788D01*
X11107754Y29009133D01*
X11069037Y29004294D01*
X11035120Y28985006D01*
X11021492Y28967485D01*
X10952664Y28999874D01*
X10934194Y29006443D01*
X10931803Y29006556D01*
X10929594Y29007471D01*
X10910085Y29009392D01*
X10814847Y29009392D01*
X10795338Y29007471D01*
X10759290Y28992539D01*
X10731700Y28964949D01*
X10716768Y28928901D01*
X10605657Y28928901D01*
X10605657Y29453836D01*
X22441683Y29453836D01*
X22441683Y26421670D01*
G37*
D11*
X3179580Y5666667D02*
X3227200Y5714286D01*
X3227200Y5714286D02*
X3274819Y5857143D01*
X3274819Y5857143D02*
X3274819Y5952381D01*
X3274819Y5952381D02*
X3227200Y6095238D01*
X3227200Y6095238D02*
X3131961Y6190476D01*
X3131961Y6190476D02*
X3036723Y6238095D01*
X3036723Y6238095D02*
X2846247Y6285714D01*
X2846247Y6285714D02*
X2703390Y6285714D01*
X2703390Y6285714D02*
X2512914Y6238095D01*
X2512914Y6238095D02*
X2417676Y6190476D01*
X2417676Y6190476D02*
X2322438Y6095238D01*
X2322438Y6095238D02*
X2274819Y5952381D01*
X2274819Y5952381D02*
X2274819Y5857143D01*
X2274819Y5857143D02*
X2322438Y5714286D01*
X2322438Y5714286D02*
X2370057Y5666667D01*
X2608152Y4809524D02*
X3274819Y4809524D01*
X2227200Y5047619D02*
X2941485Y5285714D01*
X2941485Y5285714D02*
X2941485Y4666667D01*
X21179580Y5666667D02*
X21227200Y5714286D01*
X21227200Y5714286D02*
X21274819Y5857143D01*
X21274819Y5857143D02*
X21274819Y5952381D01*
X21274819Y5952381D02*
X21227200Y6095238D01*
X21227200Y6095238D02*
X21131961Y6190476D01*
X21131961Y6190476D02*
X21036723Y6238095D01*
X21036723Y6238095D02*
X20846247Y6285714D01*
X20846247Y6285714D02*
X20703390Y6285714D01*
X20703390Y6285714D02*
X20512914Y6238095D01*
X20512914Y6238095D02*
X20417676Y6190476D01*
X20417676Y6190476D02*
X20322438Y6095238D01*
X20322438Y6095238D02*
X20274819Y5952381D01*
X20274819Y5952381D02*
X20274819Y5857143D01*
X20274819Y5857143D02*
X20322438Y5714286D01*
X20322438Y5714286D02*
X20370057Y5666667D01*
X20370057Y5285714D02*
X20322438Y5238095D01*
X20322438Y5238095D02*
X20274819Y5142857D01*
X20274819Y5142857D02*
X20274819Y4904762D01*
X20274819Y4904762D02*
X20322438Y4809524D01*
X20322438Y4809524D02*
X20370057Y4761905D01*
X20370057Y4761905D02*
X20465295Y4714286D01*
X20465295Y4714286D02*
X20560533Y4714286D01*
X20560533Y4714286D02*
X20703390Y4761905D01*
X20703390Y4761905D02*
X21274819Y5333333D01*
X21274819Y5333333D02*
X21274819Y4714286D01*
X29469065Y4389926D02*
X30106486Y4389926D01*
X30106486Y4389926D02*
X30181476Y4352430D01*
X30181476Y4352430D02*
X30218972Y4314935D01*
X30218972Y4314935D02*
X30256467Y4239944D01*
X30256467Y4239944D02*
X30256467Y4089963D01*
X30256467Y4089963D02*
X30218972Y4014972D01*
X30218972Y4014972D02*
X30181476Y3977477D01*
X30181476Y3977477D02*
X30106486Y3939982D01*
X30106486Y3939982D02*
X29469065Y3939982D01*
X30256467Y3152580D02*
X30256467Y3602524D01*
X30256467Y3377552D02*
X29469065Y3377552D01*
X29469065Y3377552D02*
X29581551Y3452543D01*
X29581551Y3452543D02*
X29656542Y3527533D01*
X29656542Y3527533D02*
X29694037Y3602524D01*
X11469065Y4359926D02*
X12106486Y4359926D01*
X12106486Y4359926D02*
X12181476Y4322430D01*
X12181476Y4322430D02*
X12218972Y4284935D01*
X12218972Y4284935D02*
X12256467Y4209944D01*
X12256467Y4209944D02*
X12256467Y4059963D01*
X12256467Y4059963D02*
X12218972Y3984972D01*
X12218972Y3984972D02*
X12181476Y3947477D01*
X12181476Y3947477D02*
X12106486Y3909982D01*
X12106486Y3909982D02*
X11469065Y3909982D01*
X11469065Y3610019D02*
X11469065Y3122580D01*
X11469065Y3122580D02*
X11769028Y3385047D01*
X11769028Y3385047D02*
X11769028Y3272561D01*
X11769028Y3272561D02*
X11806523Y3197571D01*
X11806523Y3197571D02*
X11844018Y3160075D01*
X11844018Y3160075D02*
X11919009Y3122580D01*
X11919009Y3122580D02*
X12106486Y3122580D01*
X12106486Y3122580D02*
X12181476Y3160075D01*
X12181476Y3160075D02*
X12218972Y3197571D01*
X12218972Y3197571D02*
X12256467Y3272561D01*
X12256467Y3272561D02*
X12256467Y3497533D01*
X12256467Y3497533D02*
X12218972Y3572524D01*
X12218972Y3572524D02*
X12181476Y3610019D01*
D12*
%TO.C,C4*%
X3765000Y5761252D02*
X3765000Y5238748D01*
X5235000Y5761252D02*
X5235000Y5238748D01*
%TO.C,C2*%
X21765000Y5761252D02*
X21765000Y5238748D01*
X23235000Y5761252D02*
X23235000Y5238748D01*
D13*
%TO.C,U1*%
X23975000Y3050000D02*
X23975000Y6950000D01*
X29025000Y3050000D02*
X29025000Y6950000D01*
D10*
X28505000Y900000D02*
G75*
G02*
X28305000Y900000I-100000J0D01*
G01*
X28305000Y900000D02*
G75*
G02*
X28505000Y900000I100000J0D01*
G01*
D13*
%TO.C,U3*%
X5975000Y3020000D02*
X5975000Y6920000D01*
X11025000Y3020000D02*
X11025000Y6920000D01*
D10*
X10505000Y870000D02*
G75*
G02*
X10305000Y870000I-100000J0D01*
G01*
X10305000Y870000D02*
G75*
G02*
X10505000Y870000I100000J0D01*
G01*
%TD*%
%LPC*%
D14*
%TO.C,J2*%
X30480000Y28700000D03*
D15*
X30480000Y26160000D03*
X30480000Y23620000D03*
X30480000Y21080000D03*
X30480000Y18540000D03*
X30480000Y16000000D03*
X30480000Y13460000D03*
X30480000Y10920000D03*
X30480000Y8380000D03*
X30480000Y5840000D03*
%TD*%
D16*
%TO.C,Grove1*%
X14000000Y6450000D03*
D17*
X16000000Y6450000D03*
X18000000Y6450000D03*
X20000000Y6450000D03*
%TD*%
D14*
%TO.C,J1*%
X2540000Y28660000D03*
D15*
X2540000Y26120000D03*
X2540000Y23580000D03*
X2540000Y21040000D03*
X2540000Y18500000D03*
X2540000Y15960000D03*
X2540000Y13420000D03*
X2540000Y10880000D03*
X2540000Y8340000D03*
X2540000Y5800000D03*
%TD*%
%TO.C,U2*%
X21660000Y23000000D03*
X21660000Y20460000D03*
X21660000Y17920000D03*
X21660000Y15380000D03*
X11500000Y15380000D03*
X11500000Y17920000D03*
X11500000Y20460000D03*
X11500000Y23000000D03*
%TD*%
D18*
%TO.C,C4*%
X4500000Y6537500D03*
X4500000Y4462500D03*
%TD*%
%TO.C,C2*%
X22500000Y6537500D03*
X22500000Y4462500D03*
%TD*%
D19*
%TO.C,U1*%
X28405000Y2530000D03*
X27135000Y2530000D03*
X25865000Y2530000D03*
X24595000Y2530000D03*
X24595000Y7470000D03*
X25865000Y7470000D03*
X27135000Y7470000D03*
X28405000Y7470000D03*
D20*
X26500000Y5000000D03*
D21*
X26500000Y5000000D03*
%TD*%
D19*
%TO.C,U3*%
X10405000Y2500000D03*
X9135000Y2500000D03*
X7865000Y2500000D03*
X6595000Y2500000D03*
X6595000Y7440000D03*
X7865000Y7440000D03*
X9135000Y7440000D03*
X10405000Y7440000D03*
D20*
X8500000Y4970000D03*
D21*
X8500000Y4970000D03*
%TD*%
%LPD*%
M02*
