%TF.GenerationSoftware,KiCad,Pcbnew,9.0.2*%
%TF.CreationDate,2025-06-04T21:23:03+09:00*%
%TF.ProjectId,rp2350-motor-board,72703233-3530-42d6-9d6f-746f722d626f,rev?*%
%TF.SameCoordinates,Original*%
%TF.FileFunction,Soldermask,Top*%
%TF.FilePolarity,Negative*%
%FSLAX46Y46*%
G04 Gerber Fmt 4.6, Leading zero omitted, Abs format (unit mm)*
G04 Created by KiCad (PCBNEW 9.0.2) date 2025-06-04 21:23:03*
%MOMM*%
%LPD*%
G01*
G04 APERTURE LIST*
G04 Aperture macros list*
%AMRoundRect*
0 Rectangle with rounded corners*
0 $1 Rounding radius*
0 $2 $3 $4 $5 $6 $7 $8 $9 X,Y pos of 4 corners*
0 Add a 4 corners polygon primitive as box body*
4,1,4,$2,$3,$4,$5,$6,$7,$8,$9,$2,$3,0*
0 Add four circle primitives for the rounded corners*
1,1,$1+$1,$2,$3*
1,1,$1+$1,$4,$5*
1,1,$1+$1,$6,$7*
1,1,$1+$1,$8,$9*
0 Add four rect primitives between the rounded corners*
20,1,$1+$1,$2,$3,$4,$5,0*
20,1,$1+$1,$4,$5,$6,$7,0*
20,1,$1+$1,$6,$7,$8,$9,0*
20,1,$1+$1,$8,$9,$2,$3,0*%
G04 Aperture macros list end*
%ADD10R,1.700000X1.700000*%
%ADD11C,1.700000*%
%ADD12RoundRect,0.250000X-0.350000X-0.625000X0.350000X-0.625000X0.350000X0.625000X-0.350000X0.625000X0*%
%ADD13O,1.200000X1.750000*%
%ADD14RoundRect,0.202000X1.685500X0.808000X-1.685500X0.808000X-1.685500X-0.808000X1.685500X-0.808000X0*%
%ADD15RoundRect,0.200000X1.687500X0.800000X-1.687500X0.800000X-1.687500X-0.800000X1.687500X-0.800000X0*%
%ADD16RoundRect,0.200000X-1.705000X-0.800000X1.705000X-0.800000X1.705000X0.800000X-1.705000X0.800000X0*%
%ADD17RoundRect,0.194000X-1.711000X-0.776000X1.711000X-0.776000X1.711000X0.776000X-1.711000X0.776000X0*%
%ADD18RoundRect,0.188000X-1.717000X-0.752000X1.717000X-0.752000X1.717000X0.752000X-1.717000X0.752000X0*%
%ADD19RoundRect,0.110000X-0.440000X1.140000X-0.440000X-1.140000X0.440000X-1.140000X0.440000X1.140000X0*%
%ADD20C,2.000000*%
G04 APERTURE END LIST*
D10*
%TO.C,J2*%
X30480000Y28700000D03*
D11*
X30480000Y26160000D03*
X30480000Y23620000D03*
X30480000Y21080000D03*
X30480000Y18540000D03*
X30480000Y16000000D03*
X30480000Y13460000D03*
X30480000Y10920000D03*
X30480000Y8380000D03*
X30480000Y5840000D03*
%TD*%
D12*
%TO.C,Grove1*%
X14000000Y6450000D03*
D13*
X16000000Y6450000D03*
X18000000Y6450000D03*
X20000000Y6450000D03*
%TD*%
D10*
%TO.C,J1*%
X2540000Y28660000D03*
D11*
X2540000Y26120000D03*
X2540000Y23580000D03*
X2540000Y21040000D03*
X2540000Y18500000D03*
X2540000Y15960000D03*
X2540000Y13420000D03*
X2540000Y10880000D03*
X2540000Y8340000D03*
X2540000Y5800000D03*
%TD*%
D14*
%TO.C,U2*%
X8064006Y26800000D03*
D15*
X8064006Y24270000D03*
X8064006Y21730000D03*
X8064006Y19190000D03*
X8064006Y16650000D03*
X8064006Y14110000D03*
X8064006Y11570000D03*
D16*
X25271506Y11570000D03*
X25271506Y14110000D03*
X25271506Y16650000D03*
X25271506Y19190000D03*
D17*
X25271506Y21760000D03*
D18*
X25271506Y24330000D03*
D16*
X25271506Y26810000D03*
D11*
X21660000Y23000000D03*
X21660000Y20460000D03*
X21660000Y17920000D03*
X21660000Y15380000D03*
X11500000Y15380000D03*
X11500000Y17920000D03*
X11500000Y20460000D03*
X11500000Y23000000D03*
X15389006Y27840000D03*
X15389006Y25300000D03*
X15389006Y22760000D03*
X17929006Y22760000D03*
X17929006Y25300000D03*
X17929006Y27840000D03*
D19*
X15659006Y14215189D03*
X17659006Y14215189D03*
%TD*%
D20*
%TO.C,U1*%
X26500000Y5000000D03*
%TD*%
%TO.C,U3*%
X8500000Y4970000D03*
%TD*%
M02*
