M48
; DRILL file {KiCad 9.0.2} date 2025-06-04T21:23:03+0900
; FORMAT={-:-/ absolute / inch / decimal}
; #@! TF.CreationDate,2025-06-04T21:23:03+09:00
; #@! TF.GenerationSoftware,Kicad,Pcbnew,9.0.2
; #@! TF.FileFunction,Plated,1,2,PTH
FMAT,2
INCH
; #@! TA.AperFunction,Plated,PTH,ViaDrill
T1C0.0118
; #@! TA.AperFunction,Plated,PTH,ComponentDrill
T2C0.0295
; #@! TA.AperFunction,Plated,PTH,ComponentDrill
T3C0.0394
%
G90
G05
T1
X0.0591Y0.0787
X0.0591Y0.0394
X0.0984Y0.0787
X0.0984Y0.0394
X0.1378Y0.0787
X0.1378Y0.0394
X0.2756Y0.0315
X0.4331Y1.063
X0.4528Y1.0039
X0.4528Y0.4921
X0.5118Y0.8661
X0.5315Y0.7874
X0.5315Y0.748
X0.5709Y0.7874
X0.5709Y0.748
X0.5709Y0.4528
X0.5709Y0.4134
X0.6102Y0.4528
X0.6102Y0.4134
X0.6299Y0.689
X0.6299Y0.6496
X0.6693Y0.689
X0.6693Y0.6496
X0.689Y0.4134
X0.7146Y0.3943
X0.748Y0.689
X0.748Y0.0591
X0.8268Y0.4921
X0.8268Y0.4528
X0.8661Y0.4921
X0.8661Y0.4528
X0.9055Y0.315
X1.1Y0.9252
X1.1024Y0.8465
X1.1024Y0.4921
X1.122Y0.5512
X1.1417Y0.9843
X1.1417Y0.8858
T2
X0.5512Y0.2539
X0.6299Y0.2539
X0.7087Y0.2539
X0.7874Y0.2539
T3
X0.1Y1.1283
X0.1Y1.0283
X0.1Y0.9283
X0.1Y0.8283
X0.1Y0.7283
X0.1Y0.6283
X0.1Y0.5283
X0.1Y0.4283
X0.1Y0.3283
X0.1Y0.2283
X0.3346Y0.1957
X0.4528Y0.9055
X0.4528Y0.8055
X0.4528Y0.7055
X0.4528Y0.6055
X0.8528Y0.9055
X0.8528Y0.8055
X0.8528Y0.7055
X0.8528Y0.6055
X1.0433Y0.1969
X1.2Y1.1299
X1.2Y1.0299
X1.2Y0.9299
X1.2Y0.8299
X1.2Y0.7299
X1.2Y0.6299
X1.2Y0.5299
X1.2Y0.4299
X1.2Y0.3299
X1.2Y0.2299
M30
