%TF.GenerationSoftware,KiCad,Pcbnew,9.0.2*%
%TF.CreationDate,2025-06-04T21:23:03+09:00*%
%TF.ProjectId,rp2350-motor-board,72703233-3530-42d6-9d6f-746f722d626f,rev?*%
%TF.SameCoordinates,Original*%
%TF.FileFunction,Soldermask,Bot*%
%TF.FilePolarity,Negative*%
%FSLAX46Y46*%
G04 Gerber Fmt 4.6, Leading zero omitted, Abs format (unit mm)*
G04 Created by KiCad (PCBNEW 9.0.2) date 2025-06-04 21:23:03*
%MOMM*%
%LPD*%
G01*
G04 APERTURE LIST*
G04 Aperture macros list*
%AMRoundRect*
0 Rectangle with rounded corners*
0 $1 Rounding radius*
0 $2 $3 $4 $5 $6 $7 $8 $9 X,Y pos of 4 corners*
0 Add a 4 corners polygon primitive as box body*
4,1,4,$2,$3,$4,$5,$6,$7,$8,$9,$2,$3,0*
0 Add four circle primitives for the rounded corners*
1,1,$1+$1,$2,$3*
1,1,$1+$1,$4,$5*
1,1,$1+$1,$6,$7*
1,1,$1+$1,$8,$9*
0 Add four rect primitives between the rounded corners*
20,1,$1+$1,$2,$3,$4,$5,0*
20,1,$1+$1,$4,$5,$6,$7,0*
20,1,$1+$1,$6,$7,$8,$9,0*
20,1,$1+$1,$8,$9,$2,$3,0*%
G04 Aperture macros list end*
%ADD10R,1.700000X1.700000*%
%ADD11C,1.700000*%
%ADD12RoundRect,0.250000X-0.350000X-0.625000X0.350000X-0.625000X0.350000X0.625000X-0.350000X0.625000X0*%
%ADD13O,1.200000X1.750000*%
%ADD14RoundRect,0.250000X-0.475000X0.337500X-0.475000X-0.337500X0.475000X-0.337500X0.475000X0.337500X0*%
%ADD15RoundRect,0.098000X0.294000X-0.989000X0.294000X0.989000X-0.294000X0.989000X-0.294000X-0.989000X0*%
%ADD16C,2.000000*%
%ADD17RoundRect,0.102000X1.142500X-1.142500X1.142500X1.142500X-1.142500X1.142500X-1.142500X-1.142500X0*%
G04 APERTURE END LIST*
D10*
%TO.C,J2*%
X30480000Y28700000D03*
D11*
X30480000Y26160000D03*
X30480000Y23620000D03*
X30480000Y21080000D03*
X30480000Y18540000D03*
X30480000Y16000000D03*
X30480000Y13460000D03*
X30480000Y10920000D03*
X30480000Y8380000D03*
X30480000Y5840000D03*
%TD*%
D12*
%TO.C,Grove1*%
X14000000Y6450000D03*
D13*
X16000000Y6450000D03*
X18000000Y6450000D03*
X20000000Y6450000D03*
%TD*%
D10*
%TO.C,J1*%
X2540000Y28660000D03*
D11*
X2540000Y26120000D03*
X2540000Y23580000D03*
X2540000Y21040000D03*
X2540000Y18500000D03*
X2540000Y15960000D03*
X2540000Y13420000D03*
X2540000Y10880000D03*
X2540000Y8340000D03*
X2540000Y5800000D03*
%TD*%
%TO.C,U2*%
X21660000Y23000000D03*
X21660000Y20460000D03*
X21660000Y17920000D03*
X21660000Y15380000D03*
X11500000Y15380000D03*
X11500000Y17920000D03*
X11500000Y20460000D03*
X11500000Y23000000D03*
%TD*%
D14*
%TO.C,C4*%
X4500000Y6537500D03*
X4500000Y4462500D03*
%TD*%
%TO.C,C2*%
X22500000Y6537500D03*
X22500000Y4462500D03*
%TD*%
D15*
%TO.C,U1*%
X28405000Y2530000D03*
X27135000Y2530000D03*
X25865000Y2530000D03*
X24595000Y2530000D03*
X24595000Y7470000D03*
X25865000Y7470000D03*
X27135000Y7470000D03*
X28405000Y7470000D03*
D16*
X26500000Y5000000D03*
D17*
X26500000Y5000000D03*
%TD*%
D15*
%TO.C,U3*%
X10405000Y2500000D03*
X9135000Y2500000D03*
X7865000Y2500000D03*
X6595000Y2500000D03*
X6595000Y7440000D03*
X7865000Y7440000D03*
X9135000Y7440000D03*
X10405000Y7440000D03*
D16*
X8500000Y4970000D03*
D17*
X8500000Y4970000D03*
%TD*%
M02*
